<svg width="90" height="90" viewBox="0 0 90 90" fill="none" xmlns="http://www.w3.org/2000/svg">
<path opacity="0.15" d="M19.8938 82.3875C19.8938 83.4119 23.0091 84.3944 28.5543 85.1187C34.0995 85.8431 41.6204 86.25 49.4625 86.25C57.3047 86.25 64.8256 85.8431 70.3708 85.1187C75.916 84.3944 79.0313 83.4119 79.0313 82.3875C79.0313 81.3631 75.916 80.3807 70.3708 79.6563C64.8256 78.932 57.3047 78.525 49.4625 78.525C41.6204 78.525 34.0995 78.932 28.5543 79.6563C23.0091 80.3807 19.8938 81.3631 19.8938 82.3875Z" fill="#45413C"/>
<path d="M84.3749 18.975C84.6069 14.6429 83.2762 10.3714 80.6249 6.9375C80.3134 6.50209 79.9122 6.13844 79.4484 5.871C78.9846 5.60357 78.4689 5.43854 77.936 5.38703C77.4031 5.33551 76.8654 5.39871 76.3589 5.57235C75.8525 5.746 75.3891 6.02608 74.9999 6.39375C74.3128 7.09473 73.928 8.03717 73.928 9.01875C73.928 10.0003 74.3128 10.9428 74.9999 11.6437C75.9551 12.6083 76.709 13.7532 77.2176 15.0118C77.7261 16.2704 77.9793 17.6176 77.9624 18.975C77.9624 25.0125 74.9437 31.425 63.5624 33.975C62.5781 33.8054 61.5798 33.7301 60.5812 33.75L38.4187 34.8375C37.1678 34.8988 35.9249 34.608 34.8311 33.9981C33.7373 33.3883 32.8365 32.4838 32.2312 31.3875L29.0999 24.1125C28.2951 22.893 27.2164 21.8785 25.9499 21.15C25.5709 19.921 25.0419 18.7434 24.3749 17.6437C23.5068 16.0627 22.206 14.7619 20.6249 13.8937C20.4369 13.798 20.2283 13.7497 20.0173 13.7531C19.8063 13.7565 19.5993 13.8114 19.4145 13.9131C19.2296 14.0148 19.0724 14.1601 18.9565 14.3365C18.8407 14.5129 18.7698 14.7149 18.7499 14.925L18.3187 19.7062C16.8823 19.7921 15.482 20.1907 14.2157 20.874C12.9494 21.5574 11.8477 22.509 10.9874 23.6625L9.50617 25.8937L5.39992 30C5.06878 30.3325 4.83983 30.7529 4.74014 31.2115C4.64046 31.67 4.67421 32.1475 4.83742 32.5875L6.22492 38.625C6.54793 39.4841 7.06432 40.2573 7.73411 40.8849C8.4039 41.5124 9.20911 41.9773 10.0874 42.2437L17.2874 44.4C18.151 44.6632 18.9308 45.1479 19.5492 45.8057C20.1675 46.4636 20.603 47.2718 20.8124 48.15L22.3499 54.5437C23.4901 57.9745 25.6894 60.9549 28.6312 63.0562C28.9311 65.2625 29.0877 67.4859 29.0999 69.7125C28.6623 72.9834 28.0362 76.2262 27.2249 79.425C27.1494 79.8004 27.1588 80.188 27.2524 80.5593C27.346 80.9307 27.5215 81.2764 27.7659 81.5712C28.0104 81.8659 28.3177 82.1023 28.6653 82.263C29.0129 82.4238 29.392 82.5047 29.7749 82.5H31.4437C31.9039 82.5018 32.3561 82.379 32.7523 82.1446C33.1484 81.9103 33.4737 81.573 33.6937 81.1687C35.4562 77.9625 39.8062 69.8062 40.6124 66.1687C41.9426 66.0402 43.2521 65.7506 44.5124 65.3062L50.6249 62.9812C52.3572 62.361 54.242 62.3085 56.0062 62.8312C57.5367 63.2787 59.1063 63.58 60.6937 63.7312C61.69 66.7039 63.6754 69.2452 66.3187 70.9312L65.3624 79.65C65.3223 80.0134 65.3602 80.3811 65.4736 80.7286C65.5871 81.0762 65.7733 81.3955 66.02 81.6653C66.2667 81.9351 66.5682 82.1491 66.9042 82.293C67.2403 82.437 67.6032 82.5075 67.9687 82.5H70.7999C71.3638 82.5045 71.9134 82.3233 72.3641 81.9845C72.8148 81.6456 73.1414 81.1679 73.2937 80.625L76.6687 67.1437C75.9121 65.085 75.4758 62.9223 75.3749 60.7312L76.1624 50.5687C76.3325 48.4998 76.0885 46.4178 75.4446 44.4443C74.8008 42.4708 73.7699 40.6455 72.4124 39.075L71.9062 38.55C78.7499 35.4187 84.1874 29.3812 84.3749 18.975Z" fill="#FFCC99"/>
<path d="M6.78742 36.8063C6.6069 36.3324 6.5675 35.8164 6.67397 35.3206C6.78045 34.8248 7.02825 34.3705 7.38742 34.0125L11.9437 29.6813L13.5374 27.2813C14.4654 26.0414 15.6522 25.0184 17.0154 24.2834C18.3785 23.5484 19.8853 23.119 21.4312 23.025L21.8999 17.8688C21.9222 17.6579 21.9931 17.4551 22.1071 17.2764C22.2211 17.0976 22.3751 16.9478 22.5569 16.8387C22.7387 16.7297 22.9433 16.6643 23.1547 16.6478C23.3661 16.6313 23.5784 16.6642 23.7749 16.7438C22.9752 15.5913 21.9236 14.6359 20.6999 13.95C20.5119 13.8543 20.3033 13.806 20.0923 13.8094C19.8813 13.8127 19.6743 13.8677 19.4895 13.9693C19.3046 14.071 19.1473 14.2164 19.0315 14.3928C18.9157 14.5692 18.8448 14.7712 18.8249 14.9813L18.3937 19.7625C16.9573 19.8484 15.557 20.2469 14.2907 20.9303C13.0244 21.6136 11.9227 22.5653 11.0624 23.7188L9.58117 25.95L5.39992 30C5.06878 30.3325 4.83983 30.7529 4.74014 31.2115C4.64046 31.67 4.67421 32.1476 4.83742 32.5875L6.22492 38.625C6.53888 39.4736 7.046 40.2375 7.70617 40.8563L6.78742 36.8063Z" fill="#FFE8D1"/>
<path d="M36.2626 35.4375C36.9133 36.6241 37.8837 37.6045 39.0636 38.2674C40.2435 38.9303 41.5856 39.249 42.9376 39.1875L66.7876 38.025C67.8642 38.027 68.938 38.1337 69.9939 38.3438C71.7071 37.964 73.3826 37.4306 75.0001 36.75C80.3813 33.3562 84.2063 27.7125 84.3751 18.975C84.6104 14.6425 83.2794 10.3698 80.6251 6.9375C80.3136 6.50209 79.9124 6.13844 79.4486 5.871C78.9848 5.60357 78.4691 5.43854 77.9362 5.38703C77.4033 5.33551 76.8655 5.39871 76.3591 5.57235C75.8527 5.746 75.3893 6.02608 75.0001 6.39375C74.313 7.09473 73.9281 8.03717 73.9281 9.01875C73.9281 10.0003 74.313 10.9428 75.0001 11.6437C75.9553 12.6083 76.7091 13.7532 77.2177 15.0118C77.7263 16.2704 77.9795 17.6176 77.9626 18.975C77.9626 25.0125 74.9438 31.425 63.5626 33.975C62.5783 33.8054 61.58 33.7301 60.5814 33.75L38.4188 34.8375C37.5076 34.8554 36.6021 34.6896 35.7563 34.35L36.2626 35.4375Z" fill="#FFE8D1"/>
<path d="M84.3749 18.975C84.6069 14.6429 83.2762 10.3714 80.6249 6.9375C80.3134 6.50209 79.9122 6.13844 79.4484 5.871C78.9846 5.60357 78.4689 5.43854 77.936 5.38703C77.4031 5.33551 76.8654 5.39871 76.3589 5.57235C75.8525 5.746 75.3891 6.02608 74.9999 6.39375C74.3128 7.09473 73.928 8.03717 73.928 9.01875C73.928 10.0003 74.3128 10.9428 74.9999 11.6437C75.9551 12.6083 76.709 13.7532 77.2175 15.0118C77.7261 16.2704 77.9793 17.6176 77.9624 18.975C77.9624 25.0125 74.9437 31.425 63.5624 33.975C62.5781 33.8054 61.5798 33.7301 60.5812 33.75L38.4187 34.8375C37.1678 34.8988 35.9249 34.608 34.8311 33.9981C33.7373 33.3883 32.8365 32.4838 32.2312 31.3875L29.0999 24.1125C28.2951 22.893 27.2164 21.8785 25.9499 21.15C25.5709 19.921 25.0419 18.7434 24.3749 17.6437C23.5068 16.0627 22.206 14.7619 20.6249 13.8937C20.4369 13.798 20.2283 13.7497 20.0173 13.7531C19.8063 13.7565 19.5993 13.8114 19.4145 13.9131C19.2296 14.0148 19.0724 14.1601 18.9565 14.3365C18.8407 14.5129 18.7698 14.7149 18.7499 14.925L18.3187 19.7062C16.8823 19.7921 15.482 20.1907 14.2157 20.874C12.9494 21.5574 11.8477 22.509 10.9874 23.6625L9.50617 25.8937L5.39992 30C5.06878 30.3325 4.83983 30.7529 4.74014 31.2115C4.64046 31.67 4.67421 32.1475 4.83742 32.5875L6.22492 38.625C6.54793 39.4841 7.06432 40.2573 7.73411 40.8849C8.4039 41.5124 9.20911 41.9773 10.0874 42.2437L17.2874 44.4C18.151 44.6632 18.9308 45.1479 19.5492 45.8057C20.1675 46.4636 20.603 47.2718 20.8124 48.15L22.3499 54.5437C23.4901 57.9745 25.6894 60.9549 28.6312 63.0562C28.9311 65.2625 29.0877 67.4859 29.0999 69.7125C28.6623 72.9834 28.0362 76.2263 27.2249 79.425C27.1494 79.8004 27.1588 80.188 27.2524 80.5593C27.346 80.9307 27.5215 81.2764 27.7659 81.5712C28.0104 81.8659 28.3177 82.1023 28.6653 82.263C29.0129 82.4238 29.392 82.5047 29.7749 82.5H31.4437C31.9039 82.5018 32.3561 82.379 32.7523 82.1446C33.1484 81.9103 33.4737 81.573 33.6937 81.1687C35.4562 77.9625 39.8062 69.8062 40.6124 66.1687C41.9426 66.0402 43.2521 65.7506 44.5124 65.3062L50.6249 62.9812C52.3572 62.361 54.242 62.3085 56.0062 62.8312C57.5367 63.2787 59.1063 63.58 60.6937 63.7312C61.69 66.7039 63.6754 69.2452 66.3187 70.9312L65.3624 79.65C65.3223 80.0134 65.3602 80.3811 65.4736 80.7286C65.5871 81.0762 65.7733 81.3955 66.02 81.6653C66.2667 81.9351 66.5682 82.1491 66.9042 82.293C67.2403 82.437 67.6032 82.5075 67.9687 82.5H70.7999C71.3638 82.5045 71.9134 82.3233 72.3641 81.9845C72.8147 81.6456 73.1414 81.1679 73.2937 80.625L76.6687 67.1437C75.9121 65.085 75.4758 62.9223 75.3749 60.7312L76.1624 50.5687C76.3325 48.4998 76.0885 46.4178 75.4446 44.4443C74.8008 42.4708 73.7699 40.6455 72.4124 39.075L71.9062 38.55C78.7499 35.4187 84.1874 29.3812 84.3749 18.975Z" stroke="#45413C" stroke-linecap="round" stroke-linejoin="round"/>
<path d="M40.6125 66.075C41.4188 61.5937 41.9626 56.7 41.9626 56.7" stroke="#45413C" stroke-linecap="round" stroke-linejoin="round"/>
<path d="M66.3937 70.9312C66.3937 70.9312 58.5187 66.75 60 55.5" stroke="#45413C" stroke-linecap="round" stroke-linejoin="round"/>
<path d="M17.175 28.425C17.175 28.833 17.0541 29.2317 16.8275 29.5709C16.6008 29.9101 16.2787 30.1744 15.9018 30.3306C15.525 30.4867 15.1103 30.5275 14.7102 30.4479C14.3101 30.3683 13.9426 30.1719 13.6541 29.8835C13.3657 29.595 13.1693 29.2275 13.0897 28.8274C13.0101 28.4273 13.0509 28.0126 13.207 27.6358C13.3632 27.2589 13.6275 26.9368 13.9667 26.7101C14.3059 26.4835 14.7046 26.3625 15.1125 26.3625C15.3834 26.3625 15.6516 26.4159 15.9018 26.5195C16.1521 26.6232 16.3794 26.7751 16.571 26.9666C16.7625 27.1582 16.9144 27.3855 17.0181 27.6358C17.1217 27.886 17.175 28.1542 17.175 28.425Z" fill="#45413C"/>
<path d="M19.2563 33.4875C19.2563 34.05 20.1938 34.5188 21.3188 34.5188C22.4438 34.5188 23.3813 34.05 23.3813 33.4875C23.3813 32.925 22.4626 32.4563 21.3188 32.4563C20.1751 32.4563 19.2563 32.9063 19.2563 33.4875Z" fill="#FFAA54"/>
</svg>
