<svg width="90" height="60" viewBox="0 0 90 60" fill="none" xmlns="http://www.w3.org/2000/svg">
<path d="M18.7483 50.192L9.42735 47.4612C9.42735 47.4612 9.01693 48.9561 7.97638 49.7572C6.80399 50.6561 4.79614 51.1397 4.79614 51.1397C4.79614 51.1397 5.88796 51.98 5.96129 52.1803C6.03456 52.3806 8.504 57.9644 8.504 57.9644C8.504 57.9644 10.4459 58.8095 11.0468 59.1124C11.6477 59.4152 13.1425 59.6595 13.8899 58.8632C14.6374 58.067 15.8612 56.9336 16.8064 56.1715C17.8982 55.2873 19.0414 54.7157 19.0414 54.7157C19.0414 54.7157 23.3135 55.9223 29.2197 55.9223C35.1259 55.9223 41.7795 54.2272 49.3345 50.4412C56.8895 46.6551 65.4337 41.0323 67.676 39.8354C69.9183 38.6385 74.6082 36.3816 76.9311 35.9858C79.254 35.5901 81.1958 35.8882 81.1958 36.8847C81.1958 37.8813 80.2212 38.4822 80.9687 38.829C81.7162 39.1759 84.1856 37.8324 84.1856 37.681C84.1856 37.5296 83.9584 32.9472 83.9584 32.9472L77.444 30.1285C77.444 30.1285 79.2247 28.6287 80.7415 27.3635C81.9286 26.3717 83.8045 25.0723 83.8045 25.0723C83.8045 25.0723 83.8778 23.3283 83.4308 23.4748C82.9839 23.6213 64.3638 27.9594 60.5461 30.1529C56.7283 32.3464 41.4792 42.1168 41.2593 42.1656C41.0394 42.2144 18.7483 50.192 18.7483 50.192Z" fill="#307B32"/>
<path d="M4.80346 51.1251C3.85086 51.4231 1.01502 52.0777 1.16886 53.4212C1.31547 54.7646 3.29392 55.6537 4.92074 56.3767C6.54018 57.0997 8.51132 57.9742 8.51132 57.9742C8.51132 57.9742 11.655 57.0802 11.8015 54.9356C11.8748 53.8413 10.1601 53.089 9.03163 52.3953C7.90319 51.7016 6.45953 50.5927 6.45953 50.5927C6.45953 50.5927 5.81469 50.8124 4.80346 51.1251Z" fill="#649726"/>
<path d="M27.9006 3.72392C27.908 3.96818 31.8284 3.62135 33.609 4.78404C35.3458 5.91739 35.9246 8.10598 33.1034 10.9003C30.2822 13.6946 23.2768 19.2833 19.884 22.1265C16.4912 24.9696 8.67981 31.1299 7.30956 37.3341C5.87329 43.8364 7.61 48.5994 12.6955 51.4426C17.781 54.2857 24.735 56.1763 36.247 53.0401C45.4874 50.5193 50.9027 45.6146 59.5787 40.9248C68.2548 36.235 73.7141 33.895 78.8728 33.7484C84.0317 33.5969 84.1049 36.2398 83.4308 37.1876C82.7566 38.1353 81.2178 38.9707 81.7893 38.8339C82.4928 38.6629 84.8524 38.1842 86.0541 36.0444C87.2485 33.8998 85.6804 31.3107 82.2437 30.3141C78.807 29.3175 71.3985 30.2652 65.6462 32.3073C59.8865 34.3493 53.8338 37.3439 53.0057 37.7884C52.185 38.2379 50.5363 37.8861 51.9579 36.7919C53.3794 35.6976 60.9344 31.0078 69.3027 28.5652C77.6711 26.1226 83.8118 25.0772 83.8118 25.0772C83.8118 25.0772 86.3546 23.4308 87.102 22.9814C87.8494 22.5319 88.9706 22.1851 88.824 21.6868C88.6775 21.1886 85.2554 20.4949 80.6316 22.3122C80.6169 22.317 47.5465 24.0317 47.5465 23.6311C47.5465 23.2306 51.8992 4.28571 51.8259 3.58714C51.7527 2.88856 51.3496 2.3854 50.7268 2.64917C50.1626 2.88856 48.0301 5.01851 47.0995 5.82945C46.2935 6.52803 45.0771 7.47579 45.0038 7.32434C44.9305 7.17289 44.4249 2.71268 40.5851 1.33995C34.1513 -0.951208 27.8567 2.71756 27.9006 3.72392Z" fill="#649726"/>
<path d="M31.9823 33.5432C29.5935 35.5852 11.7209 39.7229 11.7209 39.7229C11.7209 39.7229 12.6442 35.7806 15.9051 31.3986C21.0712 24.4616 37.3609 15.3116 41.3253 9.71314C43.6775 6.39121 42.7468 3.83136 40.805 2.38536C38.8632 0.939362 36.9506 0.607112 36.9506 0.607112C36.9506 0.607112 42.527 0.494753 44.6228 3.93397C46.7185 7.37319 44.9232 9.81575 44.9232 9.81575C44.9232 9.81575 47.3927 7.87142 49.0341 6.27885C50.6755 4.68139 51.7234 3.1865 51.7234 3.1865C51.7234 3.1865 52.8446 4.88169 52.0971 7.42199C51.3497 9.96228 50.3018 11.3594 50.3018 11.3594L31.9823 33.5432Z" fill="#307B32"/>
<path d="M69.2955 2.73708C69.2955 2.73708 70.7318 1.10054 73.4064 0.890488C76.6234 0.641348 78.4186 1.88705 78.4186 1.88705C78.4186 1.88705 81.1666 -0.0572305 84.6546 1.41811C87.8715 2.78105 86.0615 5.19436 86.0615 5.19436C86.0615 5.19436 88.7435 5.61938 88.6776 7.89586C88.6116 10.0649 86.5745 10.9101 86.5745 10.9101L72.593 23.5725L63.0229 28.2085L57.7908 30.4508L47.7738 35.0869L25.6438 46.0542C25.6438 46.0542 17.6272 49.1514 13.6042 46.2056C11.3619 44.5593 11.208 42.615 11.3619 41.2716C11.5818 39.2833 12.1826 38.316 13.531 37.2853C15.2896 35.9418 17.2681 35.5901 17.2681 35.5901C17.2681 35.5901 16.55 33.5481 18.6018 31.4963C20.6389 29.464 23.7752 29.6595 23.7752 29.6595C23.7752 29.6595 23.6653 26.8553 26.0615 25.4093C28.5016 23.934 29.8353 24.6228 29.9818 24.3737C30.1284 24.1246 29.6227 22.4196 32.5392 20.6903C34.635 19.4494 37.4562 19.7865 37.4562 19.7865C37.4562 19.7865 36.9139 17.4465 39.6692 15.6487C42.5637 13.7581 45.3043 14.8524 45.3043 14.8524C45.3043 14.8524 44.784 12.5319 46.6892 11.1104C48.9609 9.42005 51.2838 9.52754 51.2838 9.52754C51.2838 9.52754 51.6648 7.43668 54.1489 6.00043C56.0322 4.90613 59.2198 5.08688 59.4396 4.88658C59.6594 4.68628 60.6634 2.79572 63.6531 2.14599C66.8261 1.45228 69.2955 2.73708 69.2955 2.73708Z" fill="#FFC01E"/>
<path d="M81.0638 12.1949C81.0638 12.1949 80.6755 14.3835 79.5544 15.3557C77.5245 17.1192 75.5241 16.7968 75.5241 16.7968C75.5241 16.7968 76.3888 19.0293 74.4469 20.6073C72.2779 22.3659 69.1562 22.1412 69.1562 22.1412C69.1562 22.1412 69.3247 24.0416 67.7419 25.1212C65.3677 26.7431 63.4625 26.4206 63.4625 26.4206C63.4625 26.4206 63.4625 27.4661 62.2314 28.4675C61.9603 28.6874 70.1674 25.297 72.7761 24.4665C75.3848 23.6312 80.6462 22.3122 80.6462 22.3122C80.6462 22.3122 83.6139 21.0957 84.3467 19.4983C85.0795 17.9008 84.6105 16.5427 84.8157 16.0591C85.0209 15.5755 86.3765 14.9795 87.0067 13.5921C87.6369 12.2047 86.8748 10.7391 86.8748 10.7391C86.8748 10.7391 86.2886 11.4084 84.7571 11.8481C82.8299 12.3952 81.0638 12.1949 81.0638 12.1949Z" fill="#F99628"/>
<path d="M72.9373 4.41272C72.9373 4.41272 72.3657 5.0722 71.9993 5.49234C71.6329 5.90761 71.2153 6.46449 71.2153 6.46449C71.2153 6.46449 70.2773 6.43031 69.4933 6.39609C68.7092 6.36188 67.3975 6.42544 67.3975 6.42544C67.3975 6.42544 68.0204 5.85872 68.438 5.51189C68.8557 5.16502 69.0316 4.55438 69.0316 4.55438C69.0316 4.55438 69.7644 4.62277 70.8049 4.58859C71.8381 4.5495 72.9373 4.41272 72.9373 4.41272Z" fill="#F99628"/>
<path d="M20.551 39.9624C20.551 39.9624 20.7049 38.6776 20.7562 38.1206C20.8075 37.5637 20.6024 36.5916 20.6024 36.5916C20.6024 36.5916 24.149 36.3131 25.6072 34.6472C27.0655 32.9814 26.809 31.765 26.809 31.765C26.809 31.765 30.5095 32.1802 32.5393 29.7474C34.5691 27.3146 33.2135 25.9956 33.5286 26.0981C33.8437 26.2007 37.4416 25.8881 39.3176 24.0464C41.1934 22.2047 40.7245 21.2325 40.7245 21.2325C40.7245 21.2325 43.8534 21.0957 45.363 19.5666C46.8725 18.0376 46.5061 16.5085 46.5061 16.5085C46.5061 16.5085 49.6571 16.4303 51.3205 15.1797C52.9912 13.9291 53.2624 11.9018 53.2624 11.9018C53.2624 11.9018 54.9844 12.1509 57.747 11.1103C60.5095 10.0697 61.2497 7.99356 61.2497 7.99356C61.2497 7.99356 62.2096 8.12059 63.0963 8.03265C64.1881 7.92517 64.8037 7.67603 64.8037 7.67603C64.8037 7.67603 64.2321 8.03265 63.8291 9.06343C63.5359 9.81085 63.382 10.5339 63.382 10.5339C63.382 10.5339 60.9273 9.81577 58.4284 11.9946C56.9116 13.3233 56.9849 14.9062 56.9849 14.9062C56.9849 14.9062 54.596 14.6228 52.449 16.3668C50.4705 17.9692 50.8295 19.2882 50.8295 19.2882C50.8295 19.2882 48.0669 19.1123 46.0885 20.8515C43.9267 22.7469 44.5789 24.6717 44.5789 24.6717C44.5789 24.6717 41.1422 24.4274 39.4714 25.8881C37.8007 27.3488 38.0645 29.2931 38.0645 29.2931C38.0645 29.2931 35.6023 29.1025 33.6312 30.6854C31.8578 32.1118 32.1216 33.1182 32.1216 33.1182C32.1216 33.1182 28.9927 33.084 27.0141 34.8231C25.0356 36.5622 25.0356 38.5749 25.0356 38.5749C25.0356 38.5749 23.6287 38.6433 22.5369 38.9902C21.4377 39.337 20.551 39.9624 20.551 39.9624Z" fill="#F99628"/>
<path d="M30.0332 41.9067C30.0332 41.9067 32.6931 42.3561 34.569 40.3434C36.4449 38.3258 36.3424 36.5574 36.3424 36.5574C36.3424 36.5574 39.3101 36.6258 41.0835 35.0967C42.8568 33.5676 42.952 31.5989 42.952 31.5989C42.952 31.5989 45.7073 31.6722 47.5466 29.8158C49.0414 28.3112 49.0561 26.7919 49.0561 26.7919C49.0561 26.7919 51.2984 26.5134 53.0717 25.0869C54.8451 23.6604 54.4787 21.6819 54.4787 21.6819C54.4787 21.6819 57.5563 21.8187 59.3297 19.9428C61.103 18.0669 60.6341 16.9189 60.6341 16.9189C60.6341 16.9189 62.957 17.1289 64.9941 15.424C67.0239 13.7191 66.1592 12.2584 66.1592 12.2584C66.1592 12.2584 69.2882 12.7078 71.2154 11.252C73.1426 9.79137 73.3331 8.03267 73.509 8.05709C74.5348 8.18412 77.2462 7.38293 77.2462 7.38293C77.2462 7.38293 76.9824 8.91204 77.0923 9.85489C77.107 9.96233 74.1831 9.79625 72.3072 11.8822C70.4313 13.9682 71.1641 15.3556 71.1641 15.3556C71.1641 15.3556 68.4308 15.5266 67.1264 17.0899C65.8221 18.6531 66.2691 20.3922 66.2691 20.3922C66.2691 20.3922 63.7923 19.8012 61.7845 21.5745C60.4728 22.7322 60.4801 24.0415 60.4801 24.0415C60.4801 24.0415 57.7029 23.3087 55.5925 25.6536C54.0537 27.3635 54.7425 29.2882 54.7425 29.2882C54.7425 29.2882 52.0825 29.1856 49.9501 30.8172C47.8104 32.4489 47.7664 35.082 47.7664 35.082C47.7664 35.082 42.7029 37.9448 38.167 40.3092C34.4591 42.2389 25.27 46.2399 25.6291 46.0542C27.124 45.2677 27.9007 44.7645 28.7874 43.9292C29.6741 43.0987 30.0332 41.9067 30.0332 41.9067Z" fill="#F99628"/>
<path d="M64.7523 3.2989C63.4919 2.9472 62.0409 3.26473 61.6233 4.48113C61.3375 5.31162 61.6233 6.0102 62.7151 6.32285C63.9389 6.66973 64.8915 5.9809 65.3238 5.38488C65.9467 4.51535 65.7415 3.57738 64.7523 3.2989Z" fill="#FBE36A"/>
<path d="M57.6588 6.43034C56.7795 5.96623 54.9989 6.25446 54.1122 7.54413C53.2256 8.83381 53.6359 10.0258 55.2554 10.0796C57.4024 10.1479 59.6447 7.47087 57.6588 6.43034Z" fill="#FBE36A"/>
<path d="M50.0014 11.0517C49.1148 10.6804 47.422 10.9247 46.6159 12.0922C45.9931 12.996 46.2715 14.0073 47.2901 14.315C48.3306 14.6277 49.7009 14.1587 50.419 13.2012C51.0419 12.3707 51.2471 11.5695 50.0014 11.0517Z" fill="#FBE36A"/>
<path d="M43.8459 15.6732C42.5269 15.0723 40.7683 15.5364 39.6764 16.6796C38.5846 17.8276 38.6872 19.1466 39.7277 19.5618C40.7683 19.9771 42.7394 19.6937 43.8972 18.4138C44.9451 17.2707 44.9964 16.1911 43.8459 15.6732Z" fill="#FBE36A"/>
<path d="M35.976 21.1983C35.038 20.7 33.2647 21.0615 32.4806 22.0336C31.6966 23.0058 32.1362 23.719 32.9496 24.1196C33.9389 24.6082 35.1406 24.3639 36.1299 23.4943C37.1192 22.6247 36.76 21.6135 35.976 21.1983Z" fill="#FBE36A"/>
<path d="M30.2895 25.8833C29.4981 25.4045 27.7321 25.5364 26.7941 26.4744C25.8562 27.4124 26.1713 28.3503 27.1605 28.7655C28.1498 29.1808 29.5568 28.6629 30.2895 28.0718C31.015 27.4807 31.3814 26.5428 30.2895 25.8833Z" fill="#FBE36A"/>
<path d="M22.427 31.4768C21.3571 30.9931 19.8696 31.5452 19.3493 32.1021C18.829 32.659 18.7777 33.4553 19.8183 33.978C20.8588 34.5008 22.317 34.1148 22.8446 33.597C23.365 33.0743 23.8852 32.1363 22.427 31.4768Z" fill="#FBE36A"/>
<path d="M27.4831 36.4549C26.8236 37.2951 26.9628 38.0865 27.7982 38.575C28.6335 39.0636 30.0918 38.7851 30.9785 37.8472C31.4328 37.3635 31.6013 36.3181 30.5095 35.8296C29.4103 35.341 28.0034 35.7905 27.4831 36.4549Z" fill="#FBE36A"/>
<path d="M35.1919 32.2145C34.3712 32.9228 34.4591 33.7777 35.1919 34.2321C35.9247 34.6815 37.7493 34.4079 38.4235 33.6752C38.995 33.0499 38.8925 32.322 38.0571 31.8335C37.3975 31.4426 36.0785 31.4475 35.1919 32.2145Z" fill="#FBE36A"/>
<path d="M41.1933 28.6679C42.1606 29.1613 43.4869 28.8437 44.1098 28.4236C44.7327 28.0035 45.3115 27.0313 44.4762 26.406C43.6408 25.7807 42.0799 25.9907 41.1933 26.6161C40.3067 27.2462 40.3067 28.2184 41.1933 28.6679Z" fill="#FBE36A"/>
<path d="M47.0776 21.2668C46.2422 22.1461 45.8758 23.6312 47.3414 24.149C48.9022 24.7059 50.573 23.5579 51.3057 22.7567C52.0385 21.9556 52.0385 20.8124 50.8368 20.3581C49.4958 19.8598 48.0668 20.2262 47.0776 21.2668Z" fill="#FBE36A"/>
<path d="M53.0204 17.2364C52.0898 18.2183 51.6135 19.4592 52.8152 20.0845C53.8412 20.6219 55.6292 20.0161 56.6184 19.0781C57.6077 18.1402 57.8202 17.0996 56.721 16.4353C55.6292 15.7757 53.9071 16.2985 53.0204 17.2364Z" fill="#FBE36A"/>
<path d="M59.1759 12.5467C58.2966 13.2257 58.0327 14.2126 58.9707 14.7694C59.9087 15.3263 61.1617 15.258 62.151 14.4226C63.1402 13.5872 63.089 12.6493 61.9971 12.1656C61.0225 11.7357 59.85 12.024 59.1759 12.5467Z" fill="#FBE36A"/>
</svg>
