<svg width="90" height="90" viewBox="0 0 90 90" fill="none" xmlns="http://www.w3.org/2000/svg">
<path opacity="0.15" d="M23.4375 85.3125C23.4375 85.6818 23.9952 86.0476 25.0788 86.3888C26.1625 86.73 27.7507 87.0401 29.753 87.3012C31.7553 87.5624 34.1323 87.7696 36.7484 87.9109C39.3645 88.0523 42.1684 88.125 45 88.125C47.8316 88.125 50.6355 88.0523 53.2516 87.9109C55.8677 87.7696 58.2447 87.5624 60.247 87.3012C62.2493 87.0401 63.8375 86.73 64.9212 86.3888C66.0048 86.0476 66.5625 85.6818 66.5625 85.3125C66.5625 84.9432 66.0048 84.5774 64.9212 84.2362C63.8375 83.895 62.2493 83.5849 60.247 83.3238C58.2447 83.0626 55.8677 82.8554 53.2516 82.7141C50.6355 82.5727 47.8316 82.5 45 82.5C42.1684 82.5 39.3645 82.5727 36.7484 82.7141C34.1323 82.8554 31.7553 83.0626 29.753 83.3238C27.7507 83.5849 26.1625 83.895 25.0788 84.2362C23.9952 84.5774 23.4375 84.9432 23.4375 85.3125Z" fill="#45413C"/>
<path d="M8.11865 42.8063C8.11865 52.5878 12.0043 61.9687 18.9209 68.8853C25.8375 75.8019 35.2184 79.6876 44.9999 79.6876C54.7814 79.6876 64.1623 75.8019 71.0789 68.8853C77.9955 61.9687 81.8811 52.5878 81.8811 42.8063C81.8811 33.0248 77.9955 23.6439 71.0789 16.7273C64.1623 9.81074 54.7814 5.92505 44.9999 5.92505C35.2184 5.92505 25.8375 9.81074 18.9209 16.7273C12.0043 23.6439 8.11865 33.0248 8.11865 42.8063Z" fill="#00B8F0"/>
<path d="M77.5124 25.4062C79.0522 30.483 79.3817 35.8498 78.4745 41.0768C77.5674 46.3037 75.4488 51.2457 72.2884 55.5067C69.1281 59.7677 65.0138 63.2295 60.2751 65.6147C55.5364 67.9998 50.305 69.2422 44.9999 69.2422C39.6948 69.2422 34.4634 67.9998 29.7247 65.6147C24.986 63.2295 20.8717 59.7677 17.7114 55.5067C14.551 51.2457 12.4324 46.3037 11.5253 41.0768C10.6181 35.8498 10.9476 30.483 12.4874 25.4062C9.47815 31.0254 7.9766 37.3286 8.12923 43.7009C8.28185 50.0733 10.0834 56.2974 13.3583 61.766C16.6331 67.2346 21.2693 71.7612 26.8148 74.9041C32.3603 78.0471 38.6257 79.6991 44.9999 79.6991C51.3741 79.6991 57.6395 78.0471 63.185 74.9041C68.7305 71.7612 73.3667 67.2346 76.6416 61.766C79.9164 56.2974 81.718 50.0733 81.8706 43.7009C82.0232 37.3286 80.5217 31.0254 77.5124 25.4062Z" fill="#009FD9"/>
<path d="M8.11865 42.8063C8.11865 52.5878 12.0043 61.9687 18.9209 68.8853C25.8375 75.8019 35.2184 79.6876 44.9999 79.6876C54.7814 79.6876 64.1623 75.8019 71.0789 68.8853C77.9955 61.9687 81.8811 52.5878 81.8811 42.8063C81.8811 33.0248 77.9955 23.6439 71.0789 16.7273C64.1623 9.81074 54.7814 5.92505 44.9999 5.92505C35.2184 5.92505 25.8375 9.81074 18.9209 16.7273C12.0043 23.6439 8.11865 33.0248 8.11865 42.8063Z" stroke="#45413C" stroke-linecap="round" stroke-linejoin="round"/>
<path d="M47.1564 44.0625L45.1689 47.8125C45.0616 48.0305 44.908 48.2225 44.7189 48.375L43.1251 49.7062C42.8095 49.9726 42.5906 50.3356 42.5024 50.7391C42.4143 51.1425 42.4618 51.5638 42.6376 51.9375L45.3939 57.7875C45.5125 58.0426 45.687 58.2678 45.9044 58.4463C46.1219 58.6248 46.3768 58.7521 46.6501 58.8187L47.8314 59.1C48.0741 59.159 48.3027 59.2659 48.5036 59.4144C48.7045 59.563 48.8736 59.7502 49.0011 59.965C49.1286 60.1799 49.2119 60.4181 49.2461 60.6655C49.2803 60.913 49.2646 61.1649 49.2001 61.4062L46.6689 70.9875C46.6018 71.2711 46.6018 71.5664 46.6689 71.85L46.8751 72.8812C46.9403 73.2011 47.0879 73.4984 47.3033 73.7437C47.5187 73.989 47.7944 74.1738 48.1031 74.2799C48.4118 74.386 48.7429 74.4096 49.0635 74.3484C49.3842 74.2873 49.6833 74.1435 49.9314 73.9312L61.6689 64.0875C61.9159 63.8778 62.213 63.7356 62.5314 63.675L64.5751 63.3C64.8584 63.2478 65.1259 63.1309 65.3568 62.9586C65.5877 62.7863 65.7757 62.563 65.9064 62.3062L69.6564 54.8062C69.7723 54.5786 69.8406 54.3297 69.8569 54.0747C69.8731 53.8198 69.8372 53.5642 69.7511 53.3237C69.6651 53.0831 69.5308 52.8627 69.3565 52.6759C69.1823 52.4891 68.9716 52.3399 68.7376 52.2375L62.7189 49.5562C62.359 49.3841 62.0634 49.1017 61.8751 48.75L60.5439 46.2187C60.4168 45.972 60.2365 45.7565 60.016 45.5879C59.7955 45.4193 59.5403 45.3017 59.2689 45.2437L49.2001 43.125C48.8039 43.0393 48.3906 43.0844 48.0221 43.2534C47.6537 43.4224 47.3499 43.7063 47.1564 44.0625Z" fill="#6DD627"/>
<path d="M49.9125 73.9687L59.2875 66.1312C55.483 67.8976 51.3807 68.9343 47.1938 69.1875L46.7063 71.0625C46.6393 71.3461 46.6393 71.6414 46.7063 71.925L46.9125 72.9562C46.9876 73.263 47.1389 73.5458 47.3525 73.7785C47.5661 74.0112 47.835 74.1861 48.1342 74.2871C48.4335 74.3881 48.7534 74.4119 49.0642 74.3562C49.3751 74.3006 49.6669 74.1673 49.9125 73.9687Z" fill="#46B000"/>
<path d="M65.8874 62.3437L66.1124 61.9125C65.4562 62.4375 64.7812 62.9625 64.0874 63.4312H64.5562C64.8487 63.3692 65.1222 63.2382 65.3537 63.049C65.5853 62.8598 65.7683 62.618 65.8874 62.3437Z" fill="#46B000"/>
<path d="M47.1564 44.0625L45.1689 47.8125C45.0616 48.0305 44.908 48.2225 44.7189 48.375L43.1251 49.7062C42.8095 49.9726 42.5906 50.3356 42.5024 50.7391C42.4143 51.1425 42.4618 51.5638 42.6376 51.9375L45.3939 57.7875C45.5125 58.0426 45.687 58.2678 45.9044 58.4463C46.1219 58.6248 46.3768 58.7521 46.6501 58.8187L47.8314 59.1C48.0741 59.159 48.3027 59.2659 48.5036 59.4144C48.7045 59.563 48.8736 59.7502 49.0011 59.965C49.1286 60.1799 49.2119 60.4181 49.2461 60.6655C49.2803 60.913 49.2646 61.1649 49.2001 61.4062L46.6689 70.9875C46.6018 71.2711 46.6018 71.5664 46.6689 71.85L46.8751 72.8812C46.9403 73.2011 47.0879 73.4984 47.3033 73.7437C47.5187 73.989 47.7944 74.1738 48.1031 74.2799C48.4118 74.386 48.7429 74.4096 49.0635 74.3484C49.3842 74.2873 49.6833 74.1435 49.9314 73.9312L61.6689 64.0875C61.9159 63.8778 62.213 63.7356 62.5314 63.675L64.5751 63.3C64.8584 63.2478 65.1259 63.1309 65.3568 62.9586C65.5877 62.7863 65.7757 62.563 65.9064 62.3062L69.6564 54.8062C69.7723 54.5786 69.8406 54.3297 69.8569 54.0747C69.8732 53.8198 69.8372 53.5642 69.7511 53.3237C69.6651 53.0831 69.5308 52.8627 69.3565 52.6759C69.1823 52.4891 68.9716 52.3399 68.7376 52.2375L62.7189 49.5562C62.359 49.3841 62.0634 49.1017 61.8751 48.75L60.5439 46.2187C60.4168 45.972 60.2365 45.7565 60.016 45.5879C59.7955 45.4193 59.5403 45.3017 59.2689 45.2437L49.2001 43.125C48.8039 43.0393 48.3906 43.0844 48.0221 43.2534C47.6537 43.4224 47.3499 43.7063 47.1564 44.0625Z" stroke="#45413C" stroke-linecap="round" stroke-linejoin="round"/>
<path d="M42.0187 18.4125L38.2687 16.2563C38.0407 16.1236 37.8434 15.9443 37.6894 15.7301C37.5355 15.5159 37.4285 15.2716 37.3754 15.0133C37.3224 14.7549 37.3244 14.4883 37.3814 14.2307C37.4384 13.9732 37.549 13.7306 37.7062 13.5188L37.9874 13.125C38.1621 12.8868 38.278 12.6108 38.3258 12.3193C38.3735 12.0278 38.3517 11.7291 38.2622 11.4477C38.1726 11.1662 38.0178 10.9099 37.8104 10.6996C37.603 10.4893 37.3489 10.331 37.0687 10.2375L32.3999 8.70002C31.9767 8.54189 31.5106 8.54189 31.0874 8.70002C27.2644 10.2427 23.7277 12.4167 20.6249 15.1313C20.2529 15.4558 20.0238 15.9139 19.9874 16.4063L19.1999 26.4C19.1689 26.8416 19.2951 27.28 19.5562 27.6375L26.8687 37.5C27.0829 37.7891 27.3758 38.0104 27.7124 38.1375L37.1999 41.7938L37.4812 41.925L42.3749 45C42.6107 45.1383 42.8738 45.2234 43.1458 45.2493C43.4179 45.2752 43.6923 45.2413 43.9499 45.15L45.8249 44.4938L40.8562 40.1438C40.7275 40.0287 40.5821 39.9339 40.4249 39.8625L34.1999 36.8438C33.9293 36.7122 33.6944 36.5175 33.5149 36.276C33.3354 36.0345 33.2166 35.7533 33.1687 35.4563L32.9249 34.0688C32.8761 33.7892 32.8914 33.5021 32.9696 33.2293C33.0478 32.9565 33.1869 32.705 33.3765 32.4937C33.5661 32.2825 33.8011 32.1171 34.0639 32.0099C34.3267 31.9027 34.6105 31.8566 34.8937 31.875L41.0812 32.3813C41.3769 32.4043 41.6739 32.3568 41.9477 32.2427C42.2215 32.1286 42.4643 31.9512 42.6562 31.725L48.9187 24.375C49.2156 24.028 49.629 23.8014 50.0812 23.7375L54.7124 23.1188C55.163 23.0551 55.575 22.8298 55.8716 22.4848C56.1683 22.1398 56.3294 21.6987 56.3249 21.2438V19.8188C56.3257 19.4745 56.2316 19.1366 56.053 18.8423C55.8744 18.5479 55.6181 18.3084 55.3124 18.15L47.9437 14.4C47.6996 14.2759 47.4313 14.2067 47.1576 14.1973C46.8839 14.188 46.6114 14.2387 46.3594 14.346C46.1074 14.4532 45.882 14.6143 45.699 14.818C45.5159 15.0217 45.3797 15.263 45.2999 15.525L44.7374 17.4C44.6476 17.6626 44.5005 17.902 44.3069 18.1009C44.1133 18.2998 43.8779 18.4532 43.6178 18.55C43.3577 18.6469 43.0793 18.6848 42.8028 18.661C42.5262 18.6373 42.2584 18.5524 42.0187 18.4125Z" fill="#6DD627" stroke="#45413C" stroke-linecap="round" stroke-linejoin="round"/>
<path d="M44.9999 5.94373C43.4826 5.94846 41.9671 6.04865 40.4624 6.24373L53.5874 11.8687C53.8374 11.9685 54.106 12.0133 54.3749 12L60.2999 11.5312L61.1624 9.65623C56.1297 7.19905 50.6004 5.92899 44.9999 5.94373Z" fill="#6DD627" stroke="#45413C" stroke-linecap="round" stroke-linejoin="round"/>
<path d="M53.9062 35.6251L48.75 33.9376C48.5283 33.8564 48.2839 33.8637 48.0674 33.958C47.851 34.0523 47.6791 34.2262 47.5875 34.4438L46.3875 37.2938C46.3241 37.445 46.3014 37.6101 46.3217 37.7728C46.342 37.9354 46.4046 38.0899 46.5033 38.2208C46.6019 38.3517 46.7332 38.4545 46.8839 38.5188C47.0347 38.5832 47.1997 38.6069 47.3625 38.5876L51.3562 38.0626C51.5701 38.0349 51.7683 37.9358 51.9187 37.7813L53.9062 35.6251Z" fill="#6DD627" stroke="#45413C" stroke-linecap="round" stroke-linejoin="round"/>
</svg>
